<svg width="40" height="40" viewBox="0 0 40 40" fill="none" xmlns="http://www.w3.org/2000/svg">
<path d="M21.25 28.8889C21.25 29.5792 20.6904 30.1389 20 30.1389C19.3096 30.1389 18.75 29.5792 18.75 28.8889V14.1943L12.625 20.3193C12.375 20.5693 12.0833 20.6943 11.75 20.6943C11.4167 20.6943 11.125 20.5693 10.875 20.3193C10.625 20.0693 10.5 19.7777 10.5 19.4443C10.5 19.111 10.625 18.8193 10.875 18.5693L19.125 10.3193C19.2639 10.1804 19.4028 10.0832 19.5417 10.0277C19.6806 9.97211 19.8333 9.94434 20 9.94434C20.1667 9.94434 20.3194 9.97211 20.4583 10.0277C20.5972 10.0832 20.7361 10.1804 20.875 10.3193L29.125 18.5693C29.375 18.8193 29.5 19.111 29.5 19.4443C29.5 19.7777 29.375 20.0693 29.125 20.3193C28.875 20.5693 28.5833 20.6943 28.25 20.6943C27.9167 20.6943 27.625 20.5693 27.375 20.3193L21.25 14.1943V28.8889Z" fill="#CED6FF"/>
</svg>
