<svg width="36" height="36" viewBox="0 0 36 36" fill="none" xmlns="http://www.w3.org/2000/svg">
<g clip-path="url(#clip0_407_664)">
<path d="M22.65 29.055L24.15 31.665C22.71 32.325 21.135 32.76 19.5 32.925V29.895C20.61 29.76 21.66 29.475 22.65 29.055ZM6.10495 19.5H3.07495C3.23995 21.15 3.67495 22.71 4.33495 24.15L6.94495 22.65C6.52495 21.66 6.23995 20.61 6.10495 19.5ZM22.65 6.94495L24.15 4.33495C22.71 3.67495 21.15 3.23995 19.5 3.07495V6.10495C20.61 6.23995 21.66 6.52495 22.65 6.94495ZM29.895 16.5H32.925C32.76 14.85 32.325 13.29 31.665 11.85L29.055 13.35C29.475 14.34 29.76 15.39 29.895 16.5ZM13.35 29.055L11.85 31.665C13.29 32.325 14.865 32.76 16.5 32.925V29.895C15.39 29.76 14.34 29.475 13.35 29.055ZM16.5 6.10495V3.07495C14.85 3.23995 13.29 3.67495 11.85 4.33495L13.35 6.94495C14.34 6.52495 15.39 6.23995 16.5 6.10495ZM27.54 10.755L30.15 9.23995C29.205 7.93495 28.05 6.77995 26.745 5.83495L25.2299 8.44495C26.115 9.11995 26.88 9.88495 27.54 10.755ZM6.94495 13.35L4.33495 11.85C3.67495 13.29 3.23995 14.85 3.07495 16.5H6.10495C6.23995 15.39 6.52495 14.34 6.94495 13.35ZM29.895 19.5C29.76 20.61 29.475 21.66 29.055 22.65L31.665 24.15C32.325 22.71 32.76 21.135 32.925 19.5H29.895ZM25.245 27.54L26.76 30.15C28.065 29.205 29.22 28.05 30.165 26.745L27.555 25.2299C26.88 26.115 26.115 26.88 25.245 27.54ZM10.755 8.45995L9.25495 5.83495C7.93495 6.79495 6.79495 7.93495 5.84995 9.25495L8.45995 10.77C9.11995 9.88495 9.88495 9.11995 10.755 8.45995ZM8.45995 25.245L5.84995 26.745C6.79495 28.05 7.94995 29.205 9.25495 30.15L10.77 27.54C9.88495 26.88 9.11995 26.115 8.45995 25.245ZM19.5 10.5H16.5V18.615L22.935 25.05L25.05 22.935L19.5 17.385V10.5Z" fill="white"/>
</g>
<defs>
<clipPath id="clip0_407_664">
<rect width="36" height="36" fill="white"/>
</clipPath>
</defs>
</svg>
