<svg width="36" height="36" viewBox="0 0 36 36" fill="none" xmlns="http://www.w3.org/2000/svg">
<g clip-path="url(#clip0_407_665)">
<path d="M29 2H7.66667V4.66667H29V2ZM7.66667 34H29V31.3333H7.66667V34ZM29 7.33333H7.66667C6.2 7.33333 5 8.53333 5 10V26C5 27.4667 6.2 28.6667 7.66667 28.6667H29C30.4667 28.6667 31.6667 27.4667 31.6667 26V10C31.6667 8.53333 30.4667 7.33333 29 7.33333ZM18.3333 11C19.9867 11 21.3333 12.3467 21.3333 14C21.3333 15.6533 19.9867 17 18.3333 17C16.68 17 15.3333 15.6533 15.3333 14C15.3333 12.3467 16.68 11 18.3333 11ZM25 24.6667H11.6667V22.6667C11.6667 20.44 16.1067 19.3333 18.3333 19.3333C20.56 19.3333 25 20.44 25 22.6667V24.6667Z" fill="white"/>
</g>
<defs>
<clipPath id="clip0_407_665">
<rect width="36" height="36" fill="white"/>
</clipPath>
</defs>
</svg>
