<svg width="36" height="36" viewBox="0 0 36 36" fill="none" xmlns="http://www.w3.org/2000/svg">
<g clip-path="url(#clip0_407_663)">
<path d="M27 6H9C5.685 6 3 8.685 3 12V24C3 27.315 5.685 30 9 30H27C30.315 30 33 27.315 33 24V12C33 8.685 30.315 6 27 6ZM24.21 20.655C23.85 20.955 23.355 21.075 22.89 20.955L6.225 16.875C6.675 15.78 7.74 15 9 15H27C28.005 15 28.89 15.51 29.445 16.26L24.21 20.655ZM9 9H27C28.65 9 30 10.35 30 12V12.825C29.115 12.315 28.095 12 27 12H9C7.905 12 6.885 12.315 6 12.825V12C6 10.35 7.35 9 9 9Z" fill="white"/>
</g>
<defs>
<clipPath id="clip0_407_663">
<rect width="36" height="36" fill="white"/>
</clipPath>
</defs>
</svg>
