<svg width="36" height="36" viewBox="0 0 36 36" fill="none" xmlns="http://www.w3.org/2000/svg">
<path d="M18.5436 25.0741H17.5338C17.298 25.0741 17.1792 24.9553 17.1792 24.7195V23.4253H17.0604C16.209 23.4253 15.543 23.1823 15.066 22.6945C14.589 22.2067 14.3514 21.5317 14.3514 20.6677V20.3491C14.3514 20.1133 14.4684 19.9945 14.706 19.9945H16.1352C16.371 19.9945 16.4898 20.1133 16.4898 20.3491V20.4661C16.4898 20.8927 16.5744 21.1843 16.7418 21.3409C16.9092 21.4975 17.217 21.5767 17.667 21.5767H18.3402C18.7776 21.5767 19.0818 21.4921 19.2582 21.3247C19.431 21.1555 19.5192 20.8423 19.5192 20.3833V20.1313C19.5192 19.8505 19.4346 19.6327 19.2672 19.4743C19.098 19.3177 18.9036 19.2115 18.6786 19.1557C18.477 19.1107 18.081 19.0621 17.4942 19.0045C16.9056 18.9487 16.4646 18.8785 16.173 18.7957C15.8814 18.7111 15.5844 18.5689 15.282 18.3655C14.6538 17.9623 14.3406 17.1721 14.3406 15.9931V15.3721C14.3406 14.4865 14.58 13.8061 15.0552 13.3291C15.5304 12.8521 16.2018 12.6145 17.064 12.6145H17.1828V11.2843C17.1828 11.0485 17.3016 10.9297 17.5374 10.9297H18.5472C18.783 10.9297 18.9018 11.0485 18.9018 11.2843V12.6145H18.936C19.7334 12.6145 20.3598 12.8611 20.8206 13.3543C21.2814 13.8475 21.5118 14.5207 21.5118 15.3721V15.6907C21.5118 15.9265 21.393 16.0453 21.1572 16.0453H19.728C19.4922 16.0453 19.3734 15.9265 19.3734 15.6907V15.5719C19.3734 15.1453 19.2924 14.8537 19.1304 14.6971C18.9666 14.5405 18.657 14.4613 18.1962 14.4613H17.658C17.1972 14.4613 16.8876 14.5495 16.7238 14.7223C16.56 14.8951 16.4808 15.2353 16.4808 15.7411V16.0777C16.4808 16.3243 16.5654 16.5169 16.7328 16.6591C16.902 16.7995 17.091 16.8931 17.3052 16.9381C17.5518 16.9831 17.9694 17.0317 18.5598 17.0803C19.1484 17.1307 19.5912 17.2045 19.89 17.2981C20.1888 17.3917 20.4804 17.5411 20.772 17.7445C21.366 18.1711 21.663 18.9325 21.663 20.0323V20.6713C21.663 21.5461 21.42 22.2265 20.9322 22.7071C20.4444 23.1895 19.7802 23.4307 18.9378 23.4307H18.9036V24.7249C18.8982 24.9553 18.7794 25.0741 18.5436 25.0741Z" fill="white"/>
<path d="M5.42525 18.0004C5.42525 17.446 5.47385 16.9042 5.54405 16.3696H2.08085C2.02505 16.906 1.99805 17.4496 1.99805 18.0004C1.99805 18.5512 2.02505 19.0966 2.08085 19.6312H5.54405C5.47385 19.0966 5.42525 18.5548 5.42525 18.0004Z" fill="white"/>
<path d="M33.9193 16.3696H30.4561C30.5263 16.906 30.5749 17.446 30.5749 18.0004C30.5749 18.5548 30.5263 19.0966 30.4561 19.6312H33.9193C33.9751 19.0948 34.0021 18.5512 34.0021 18.0004C34.0021 17.4496 33.9733 16.9042 33.9193 16.3696Z" fill="white"/>
<path d="M18 5.4254C23.4288 5.4254 28.044 8.8706 29.8026 13.6928H33.4098C31.5288 6.9482 25.344 2 18 2C10.656 2 4.47121 6.9482 2.59021 13.6928H6.19741C7.95601 8.8706 12.5712 5.4254 18 5.4254Z" fill="white"/>
<path d="M18 30.575C12.5712 30.575 7.95601 27.1298 6.19741 22.3076H2.59021C4.47121 29.0522 10.656 34.0004 18 34.0004C25.344 34.0004 31.5288 29.0504 33.4098 22.3076H29.8026C28.044 27.1298 23.4288 30.575 18 30.575Z" fill="white"/>
</svg>
