<svg width="36" height="36" viewBox="0 0 36 36" fill="none" xmlns="http://www.w3.org/2000/svg">
<g clip-path="url(#clip0_1188_2640)">
<path d="M28.1818 13.6364L30 9.63636L34 7.81818L30 6L28.1818 2L26.3636 6L22.3636 7.81818L26.3636 9.63636L28.1818 13.6364Z" fill="white"/>
<path d="M28.1818 22.3638L26.3636 26.3638L22.3636 28.182L26.3636 30.0001L28.1818 34.0001L30 30.0001L34 28.182L30 26.3638L28.1818 22.3638Z" fill="white"/>
<path d="M17.2727 14.3638L13.6364 6.36377L10 14.3638L2 18.0001L10 21.6365L13.6364 29.6365L17.2727 21.6365L25.2727 18.0001L17.2727 14.3638ZM15.0764 19.4401L13.6364 22.611L12.1964 19.4401L9.02545 18.0001L12.1964 16.5601L13.6364 13.3892L15.0764 16.5601L18.2473 18.0001L15.0764 19.4401Z" fill="white"/>
</g>
<defs>
<clipPath id="clip0_1188_2640">
<rect width="36" height="36" fill="white"/>
</clipPath>
</defs>
</svg>
