<svg width="61" height="60" viewBox="0 0 61 60" fill="none" xmlns="http://www.w3.org/2000/svg">
<path d="M46.829 14.6933C52.2242 22.6748 54.8886 31.6777 53.8926 42.0421C53.8884 42.086 53.8657 42.1263 53.8299 42.1527C49.7443 45.1713 45.7858 47.0033 41.8829 48.2181C41.8525 48.2274 41.82 48.2269 41.7899 48.2167C41.7598 48.2064 41.7337 48.187 41.7151 48.1611C40.8134 46.8987 39.9941 45.5678 39.2764 44.1703C39.2352 44.088 39.2728 43.9889 39.3576 43.9564C40.6588 43.4631 41.896 42.8719 43.0861 42.1719C43.1799 42.1167 43.1859 41.9815 43.0993 41.9166C42.8467 41.7279 42.5965 41.5296 42.357 41.3314C42.3123 41.2947 42.2519 41.2875 42.2012 41.3121C34.4748 44.9021 26.0109 44.9021 18.1931 41.3121C18.1424 41.2893 18.0821 41.2971 18.0385 41.3332C17.7996 41.5314 17.5488 41.7279 17.2986 41.9166C17.212 41.9815 17.2192 42.1167 17.3135 42.1719C18.5036 42.8587 19.7409 43.4631 21.0403 43.9588C21.1245 43.9913 21.1645 44.088 21.1227 44.1703C20.4205 45.5697 19.6012 46.9005 18.6828 48.1629C18.6428 48.2139 18.5771 48.2374 18.515 48.2181C14.6306 47.0033 10.6721 45.1713 6.58648 42.1527C6.55245 42.1263 6.52796 42.0842 6.52438 42.0403C5.69197 33.0753 7.38844 23.9979 13.5814 14.6915C13.5963 14.6669 13.619 14.6477 13.6453 14.6362C16.6925 13.2291 19.9571 12.1939 23.3691 11.6026C23.4312 11.593 23.4933 11.6219 23.5256 11.6771C23.9472 12.4282 24.4291 13.3913 24.7551 14.1784C28.3517 13.6256 32.0044 13.6256 35.6762 14.1784C36.0023 13.4081 36.4674 12.4282 36.8872 11.6771C36.9022 11.6497 36.9253 11.6277 36.9534 11.6144C36.9815 11.601 37.0131 11.5969 37.0437 11.6026C40.4575 12.1957 43.7221 13.2309 46.7669 14.6362C46.7938 14.6477 46.8159 14.6669 46.829 14.6933ZM26.5836 31.739C26.6212 29.0887 24.7008 26.8957 22.2901 26.8957C19.8992 26.8957 17.9973 29.0695 17.9973 31.739C17.9973 34.4079 19.9368 36.5818 22.2901 36.5818C24.6817 36.5818 26.5836 34.4079 26.5836 31.739ZM42.4568 31.739C42.4944 29.0887 40.574 26.8957 38.1639 26.8957C35.7724 26.8957 33.8705 29.0695 33.8705 31.739C33.8705 34.4079 35.81 36.5818 38.1639 36.5818C40.574 36.5818 42.4568 34.4079 42.4568 31.739Z" fill="white"/>
</svg>
