<svg width="60" height="61" viewBox="0 0 60 61" fill="none" xmlns="http://www.w3.org/2000/svg">
<path d="M33.2922 30.7751C33.2922 38.6074 26.8307 44.9672 18.8261 44.9672C10.8214 44.9672 4.35986 38.6074 4.35986 30.7751C4.35986 22.9428 10.8214 16.583 18.8261 16.583C26.8307 16.583 33.2922 22.9428 33.2922 30.7751ZM49.1408 30.7751C49.1408 38.1374 45.8939 44.1213 41.9077 44.1213C37.9214 44.1213 34.6746 38.1374 34.6746 30.7751C34.6746 23.4127 37.9214 17.4289 41.9077 17.4289C45.8939 17.4289 49.1408 23.3814 49.1408 30.7751ZM55.6345 30.7751C55.6345 37.3855 54.5093 42.7428 53.0949 42.7428C51.6804 42.7428 50.5552 37.3855 50.5552 30.7751C50.5552 24.1646 51.6804 18.8074 53.0949 18.8074C54.5093 18.8074 55.6345 24.1646 55.6345 30.7751Z" fill="black"/>
</svg>
