<svg width="61" height="61" viewBox="0 0 61 61" fill="none" xmlns="http://www.w3.org/2000/svg">
<path d="M53.4821 15.3473C51.9702 15.998 50.3808 16.451 48.7532 16.6953C49.5142 16.5649 50.6339 15.1951 51.0796 14.6407C51.7567 13.8044 52.2727 12.8497 52.6015 11.8251C52.6015 11.749 52.6776 11.6403 52.6015 11.586C52.5632 11.565 52.5202 11.5541 52.4765 11.5541C52.4328 11.5541 52.3898 11.565 52.3515 11.586C50.5841 12.5431 48.7031 13.2736 46.7529 13.7602C46.685 13.7809 46.6126 13.7828 46.5437 13.7656C46.4747 13.7483 46.4118 13.7126 46.3616 13.6623C46.2098 13.4816 46.0464 13.3109 45.8724 13.1514C45.077 12.4388 44.1746 11.8555 43.1981 11.4229C41.8801 10.8822 40.4564 10.648 39.0346 10.738C37.655 10.8252 36.308 11.1952 35.0775 11.8251C33.8658 12.4893 32.8009 13.3915 31.9467 14.4777C31.0482 15.5956 30.3995 16.8929 30.0443 18.2825C29.7514 19.6042 29.7181 20.9703 29.9465 22.3047C29.9465 22.533 29.9465 22.5656 29.7508 22.533C21.9998 21.3916 15.6403 18.6412 10.444 12.7383C10.2157 12.4774 10.0961 12.4774 9.9113 12.7383C7.65014 16.1735 8.74811 21.609 11.5746 24.2941C11.955 24.6529 12.3464 25.0007 12.7595 25.3269C11.4636 25.2349 10.1993 24.8837 9.04162 24.2941C8.8242 24.1528 8.70462 24.2289 8.69375 24.4898C8.66294 24.8515 8.66294 25.2152 8.69375 25.5769C8.92058 27.3104 9.60373 28.9525 10.6734 30.3354C11.743 31.7182 13.1607 32.7922 14.7815 33.4475C15.1766 33.6167 15.5883 33.7442 16.0099 33.8279C14.8102 34.0641 13.5798 34.1009 12.3681 33.9366C12.1072 33.8823 12.0094 34.0236 12.1072 34.2736C13.7053 38.622 17.1731 39.9483 19.7169 40.6875C20.0648 40.7419 20.4126 40.7419 20.804 40.8288C20.804 40.8288 20.804 40.8288 20.7388 40.8941C19.9887 42.2638 16.9557 43.1878 15.5642 43.6661C13.0244 44.5784 10.3165 44.9271 7.6284 44.688C7.20443 44.6228 7.10659 44.6337 6.99788 44.688C6.88918 44.7424 6.99788 44.8619 7.11747 44.9707C7.66101 45.3294 8.20456 45.6447 8.76985 45.949C10.4527 46.8669 12.2319 47.5961 14.0749 48.1232C23.6196 50.754 34.3601 48.819 41.524 41.6985C47.1552 36.1108 49.1337 28.4033 49.1337 20.685C49.1337 20.3914 49.4924 20.2175 49.699 20.0653C51.1236 18.9553 52.3796 17.6444 53.4277 16.1735C53.6092 15.9543 53.7023 15.6751 53.6886 15.3908C53.6886 15.2277 53.6886 15.2604 53.4821 15.3473Z" fill="white"/>
</svg>
