<svg width="40" height="40" viewBox="0 0 40 40" fill="none" xmlns="http://www.w3.org/2000/svg">
<g clip-path="url(#clip0_454_824)">
<path d="M18.75 11.1111C18.75 10.4208 19.3096 9.86111 20 9.86111C20.6904 9.86111 21.25 10.4208 21.25 11.1111V25.8056L27.375 19.6806C27.625 19.4306 27.9167 19.3056 28.25 19.3056C28.5833 19.3056 28.875 19.4306 29.125 19.6806C29.375 19.9306 29.5 20.2223 29.5 20.5556C29.5 20.889 29.375 21.1806 29.125 21.4306L20.875 29.6806C20.7361 29.8195 20.5972 29.9167 20.4583 29.9723C20.3194 30.0279 20.1667 30.0556 20 30.0556C19.8333 30.0556 19.6806 30.0279 19.5417 29.9723C19.4028 29.9167 19.2639 29.8195 19.125 29.6806L10.875 21.4306C10.625 21.1806 10.5 20.889 10.5 20.5556C10.5 20.2223 10.625 19.9306 10.875 19.6806C11.125 19.4306 11.4167 19.3056 11.75 19.3056C12.0833 19.3056 12.375 19.4306 12.625 19.6806L18.75 25.8056V11.1111Z" fill="#CED6FF"/>
<path fill-rule="evenodd" clip-rule="evenodd" d="M40 20C40 31.0457 31.0457 40 20 40C8.9543 40 0 31.0457 0 20C0 8.9543 8.9543 0 20 0C31.0457 0 40 8.9543 40 20ZM38 20C38 29.9411 29.9411 38 20 38C10.0589 38 2 29.9411 2 20C2 10.0589 10.0589 2 20 2C29.9411 2 38 10.0589 38 20Z" fill="#CED6FF"/>
</g>
<defs>
<clipPath id="clip0_454_824">
<rect width="40" height="40" rx="20" fill="white"/>
</clipPath>
</defs>
</svg>
