<svg width="668" height="506" viewBox="0 0 668 506" fill="none" xmlns="http://www.w3.org/2000/svg">
<g clip-path="url(#clip0_659_3696)">
<path fill-rule="evenodd" clip-rule="evenodd" d="M326.67 331.434C320.396 336.529 314.032 341.72 307.57 347.011C289.019 362.204 274.279 374.279 262.034 384.485C263.494 397.322 265.047 409.84 266.695 421.799C272.07 438.204 276.483 457.322 280.033 479.917C281.003 486.432 281.356 492.558 281.161 498.297C296.576 556.731 308.565 582.686 315.614 597.946C325.455 619.249 321.038 635.73 318.042 637.728C316.273 638.907 304.558 640.91 299.065 637.728C293.571 634.545 270.812 616.256 258.03 585.672C253.747 575.426 249.802 565.85 245.839 555.372C234.388 560.861 221.22 563.136 208.011 562.217C180.709 560.317 102.409 515.487 70.1688 472.767C39.4973 432.126 -4.90874 351.677 20.5917 316.005C34.0063 297.24 63.9676 292.623 78.8728 291.51C103.919 289.64 133.489 297.926 164.346 313.222C173.526 317.772 182.115 322.284 190.141 326.986C176.642 248.768 162.166 138.964 161.081 130.306C159.908 120.945 159.212 114.269 159.908 109.51C160.758 103.699 161.849 100.611 164.346 98.4709C167.841 95.4744 178.085 91.2299 185.82 90.4802C199.803 89.1247 214.637 97.4721 223.73 104.793C230.765 110.457 240.253 121.944 242.03 135.521C242.55 139.5 253.843 299.556 253.843 299.556C275.922 283.36 325.15 248.297 325.15 248.297C324.373 230.444 323.665 214.613 323.035 200.503C320.123 135.34 318.852 106.906 319.929 85.7509C321.238 60.0155 324.506 39.1849 337.635 26.055C356.113 7.57643 389.977 -0.957853 400.559 0.0851185C404.437 0.467348 413.543 2.58222 411.046 20.0619C408.005 41.3527 401.428 109.597 400.559 119.946C395.565 179.377 392.847 250.921 392.847 250.921C394.093 241.285 395.649 232.041 397.309 223.784C402.922 195.858 414.657 160.898 432.754 129.662C479.178 49.5277 544.321 53.7769 553.746 59.1434C564.859 65.4713 574.583 84.1149 576.962 99.0339C578.03 105.73 578.235 114.552 577.641 125.463C579.507 119.571 581.3 114.134 583.004 109.243C595.456 73.4999 619.441 58.1523 625.785 55.0213C637.154 49.4104 676.235 40.3445 688.209 53.0236C694.42 59.6005 679.852 94.5081 665.862 128.03C660.73 140.328 655.676 152.439 651.753 162.896C637.14 201.86 586.417 336.147 586.417 336.147C569.853 380.855 554.458 422.083 542.108 453.877C509.6 537.566 498.927 556.821 485.608 570.34C480.722 575.3 474.467 579.338 471.073 576.217C469.903 575.141 468.834 573.786 467.831 572.098C440.913 639.959 428.436 654.105 424.097 659.024C423.774 659.391 423.496 659.706 423.26 659.989C423.073 660.214 422.87 660.458 422.653 660.719C417.843 666.508 405.938 680.836 394.948 685.672C390.654 687.562 372.301 690.855 364.985 687.67C355.094 683.364 344.316 665.196 340.866 655.859C332.77 633.944 335.511 620.272 340.625 616.508C347.506 611.442 402.565 563.295 458.862 414.237C500.937 305.231 499.174 294.525 499.174 294.525C480.961 319.714 451.497 344.281 431.022 347.011C419.1 348.601 403.275 340.19 396.064 327.205C392.459 320.713 390.519 309.769 390.135 298.96C387.466 346.563 384.742 393.131 382.299 427.151C375.868 516.703 371.295 538.327 362.588 555.088C358.055 563.813 352.001 564.984 350.427 564.984C339.516 564.984 333.024 546.334 331.886 542.748C328.427 531.85 327.699 517.867 327.699 500.886L327.699 369.25L327.699 369.248C327.699 366.434 327.725 363.122 327.753 359.648C327.862 346.219 327.99 330.362 326.67 331.434ZM205.056 409.301C196.566 396.018 187.973 386.891 182.813 382.849C158.852 364.079 123.285 358.059 110.911 358.669C100.35 359.189 92.7097 365.161 89.9176 370.779C84.5187 381.642 89.9176 410.608 98.637 431.851C107.865 454.332 129.888 482.702 151.861 499.006C173.834 515.31 203.907 524.476 210.789 524.476L210.831 524.476C217.412 524.476 227.213 524.476 230.576 510.003C227.123 498.551 223.409 485.462 219.279 470.039C213.732 449.327 208.948 428.168 205.056 409.301ZM491.329 144.194C497.549 143.348 504.234 146.798 507.429 152.908C511.806 161.281 511.564 185.37 503.81 203.936C482.986 253.791 462.384 286.752 450.498 295.242C444.206 299.737 435.668 301.999 432.491 301.028C424.112 298.464 422.723 284.608 422.95 279.394C424.304 248.297 447.921 193.244 458.871 176.263C469.82 159.283 478.643 145.921 491.329 144.194Z" fill="url(#paint0_linear_659_3696)"/>
<path d="M530.401 493.512C528.972 489.7 538.302 467.605 538.302 467.605C584.336 377.147 655.126 238.708 660.181 230.478C665.237 222.248 668.493 216.951 674.726 211.34C680.958 205.729 689.091 200.508 703.573 196.24C718.937 191.713 764 182.897 764 198.238C764 204.73 741.145 240.306 726.27 261.794C699.113 301.022 613.191 434.318 613.191 434.318C579.22 484.22 568.149 495.797 554.665 503.962C550.087 506.734 542.986 509.687 540.037 507.684C536.277 505.129 531.899 497.508 530.401 493.512Z" fill="url(#paint1_linear_659_3696)"/>
<path fill-rule="evenodd" clip-rule="evenodd" d="M570.004 111.674C582.456 75.9106 606.441 60.5547 612.785 57.4219C624.154 51.808 663.235 42.7371 675.209 55.4232C683.699 64.4176 653.367 126.371 638.753 165.356C624.14 204.341 573.417 338.701 573.417 338.701C556.853 383.434 541.458 424.685 529.108 456.495C496.6 540.231 485.927 559.496 472.608 573.023C467.722 577.985 461.467 582.026 458.073 578.903C454.36 575.487 451.663 569.258 448.867 558.497C446.071 547.736 449.899 532.709 455.126 510.773C460.353 488.838 486.41 412.356 504.122 348.583C521.834 284.81 551.314 165.356 570.004 111.674ZM151.346 315.763C215.268 347.467 250.506 377.291 267.033 482.55C275.655 540.476 235.528 567.715 195.011 564.894C167.709 562.994 89.4085 518.139 57.1688 475.396C26.4973 434.733 -17.9087 354.24 7.59166 318.549C21.0063 299.773 50.9676 295.153 65.8728 294.04C90.9191 292.169 120.489 300.46 151.346 315.763ZM85.637 434.457C94.8649 456.951 116.888 485.337 138.861 501.649C160.834 517.962 190.907 527.133 197.789 527.133C208.885 527.133 229.226 527.221 212.251 457.577C201.954 419.329 179.649 393.138 169.813 385.429C145.852 366.648 110.285 360.625 97.9107 361.235C87.3499 361.756 79.7097 367.731 76.9176 373.352C71.5187 384.221 76.9176 413.203 85.637 434.457ZM525.302 470.231C525.302 470.231 515.972 492.339 517.401 496.153C518.899 500.15 523.277 507.776 527.037 510.332C529.986 512.336 537.087 509.382 541.665 506.608C555.149 498.438 566.22 486.855 600.191 436.926C600.191 436.926 686.113 303.558 713.27 264.308C728.145 242.808 751 207.213 751 200.717C751 185.368 705.937 194.188 690.573 198.718C676.091 202.988 667.958 208.212 661.726 213.826C655.493 219.44 652.237 224.74 647.181 232.975C642.126 241.209 571.336 379.724 525.302 470.231Z" fill="url(#paint2_linear_659_3696)"/>
<path fill-rule="evenodd" clip-rule="evenodd" d="M294.82 350.011C301.276 344.72 307.636 339.529 313.904 334.434C315.564 333.085 314.932 358.555 314.932 372.248L314.932 372.25C314.932 438.462 314.932 486.906 314.932 503.886C314.932 520.867 315.66 534.85 319.116 545.748C320.253 549.334 326.74 567.984 337.642 567.984C339.214 567.984 345.264 566.813 349.793 558.088C358.493 541.327 363.062 519.703 369.488 430.151C371.929 396.131 374.652 349.563 377.318 301.96C377.702 312.769 379.64 323.713 383.242 330.205C390.447 343.19 406.259 351.601 418.172 350.011C438.63 347.281 468.071 322.714 486.269 297.525C486.269 297.525 488.03 308.231 445.99 417.237C389.738 566.295 334.724 614.442 327.848 619.508C322.739 623.272 319.999 636.944 328.089 658.859C331.536 668.196 342.306 686.364 352.188 690.67C359.498 693.855 377.837 690.562 382.127 688.672C393.604 683.618 406.079 668.196 410.416 662.989C414.754 657.782 433.547 641.425 483.119 498.619C516.96 401.132 553.513 213.645 558.991 178.034C564.469 142.423 566.371 116.953 563.994 102.034C561.616 87.115 551.901 68.4713 540.796 62.1434C531.379 56.7769 466.289 52.5277 419.902 132.662C401.821 163.898 390.095 198.858 384.486 226.784C382.827 235.041 381.273 244.285 380.028 253.921C380.028 253.921 382.743 182.377 387.733 122.946C388.602 112.597 395.173 44.3527 398.212 23.0619C400.707 5.58222 391.608 3.46735 387.733 3.08512C377.161 2.04215 343.323 10.5764 324.861 29.055C311.742 42.1849 308.477 63.0156 307.169 88.7509C305.86 114.486 308.022 150.994 312.386 251.297C312.386 251.297 263.198 286.36 241.136 302.556C241.136 302.556 229.853 142.5 229.333 138.521C227.558 124.944 218.077 113.457 211.048 107.793C201.963 100.472 187.14 92.1247 173.168 93.4802C165.44 94.2299 155.204 98.4744 151.711 101.471C149.217 103.611 148.127 106.699 147.277 112.51C146.582 117.269 147.277 123.945 148.45 133.306C149.622 142.668 166.441 270.307 180.751 348.381C180.751 348.381 190.429 412.61 206.6 473.039C222.772 533.469 232.548 558.088 245.32 588.672C258.092 619.256 280.833 637.545 286.322 640.728C291.811 643.91 303.515 641.907 305.283 640.728C308.277 638.73 312.69 622.249 302.858 600.946C295.555 585.124 282.946 557.806 266.717 494.711C259.835 467.954 254.087 429.418 249.321 387.485C261.556 377.279 276.284 365.204 294.82 350.011ZM494.517 155.908C491.325 149.798 484.645 146.348 478.43 147.194C465.754 148.921 456.938 162.283 445.998 179.263C435.058 196.244 411.459 251.297 410.106 282.394C409.879 287.608 411.267 301.465 419.64 304.028C422.814 304.999 431.345 302.737 437.632 298.242C449.508 289.752 470.093 256.791 490.901 206.936C498.649 188.37 498.891 164.281 494.517 155.908Z" fill="url(#paint3_linear_659_3696)"/>
</g>
<defs>
<linearGradient id="paint0_linear_659_3696" x1="43.669" y1="170.694" x2="693.12" y2="500.095" gradientUnits="userSpaceOnUse">
<stop stop-color="#2E3984"/>
<stop offset="1" stop-color="#2E3984" stop-opacity="0"/>
</linearGradient>
<linearGradient id="paint1_linear_659_3696" x1="43.669" y1="170.694" x2="693.12" y2="500.095" gradientUnits="userSpaceOnUse">
<stop stop-color="#2E3984"/>
<stop offset="1" stop-color="#2E3984" stop-opacity="0"/>
</linearGradient>
<linearGradient id="paint2_linear_659_3696" x1="50.8055" y1="381.192" x2="636.748" y2="268.56" gradientUnits="userSpaceOnUse">
<stop stop-color="#A397F7"/>
<stop offset="1" stop-color="#5543C0"/>
</linearGradient>
<linearGradient id="paint3_linear_659_3696" x1="183.791" y1="416.865" x2="622.806" y2="260.674" gradientUnits="userSpaceOnUse">
<stop stop-color="#CAA9FF"/>
<stop offset="1" stop-color="#6559EB"/>
</linearGradient>
<clipPath id="clip0_659_3696">
<rect width="668" height="506" fill="white"/>
</clipPath>
</defs>
</svg>
