<svg preserveAspectRatio="none" width="1280" height="249" viewBox="0 0 1280 249" fill="none" xmlns="http://www.w3.org/2000/svg">
<path d="M190 249L0 0V249H190Z" fill="#716EFF" fill-opacity="0.2"/>
<path d="M0 249H534L492.175 215.429L390.044 149L215.934 207.571L137.148 179.714L0 227.571V249Z" fill="#716EFF" fill-opacity="0.4"/>
<path opacity="0.8" d="M321.836 249L390 149L215.695 207.571L93 249H321.836Z" fill="url(#paint0_linear_344_108)"/>
<path opacity="0.5" d="M591 249L492.227 215L428 249H591Z" fill="url(#paint1_linear_344_108)"/>
<path d="M1129 53L1034 122L1020 249H1280V132L1205 108L1129 53Z" fill="#2F3B87"/>
<path d="M971 73L713 249H1226L1038 119L971 73Z" fill="#2F3B87"/>
<path opacity="0.8" d="M948 249H713L971 73L1020 249H948Z" fill="url(#paint2_linear_344_108)"/>
<path opacity="0.3" d="M1280 249L1205 108L1280 132V249Z" fill="url(#paint3_linear_344_108)"/>
<path d="M777 172L713 249H948L777 172Z" fill="#363F94"/>
<path opacity="0.8" d="M789 249L777 172L713 249H789Z" fill="url(#paint4_linear_344_108)"/>
<path opacity="0.5" d="M1226 249L1129 53L1038 119L1226 249Z" fill="url(#paint5_linear_344_108)"/>
<path d="M808 249L706 213L591 249H808Z" fill="#27367C"/>
<path d="M717 249L706 213L591 249H717Z" fill="#5259C1"/>
<defs>
<linearGradient id="paint0_linear_344_108" x1="93" y1="199" x2="390" y2="199" gradientUnits="userSpaceOnUse">
<stop stop-color="#716EFF"/>
<stop offset="1" stop-color="#C172FF"/>
</linearGradient>
<linearGradient id="paint1_linear_344_108" x1="428" y1="232" x2="591" y2="232" gradientUnits="userSpaceOnUse">
<stop stop-color="#716EFF"/>
<stop offset="1" stop-color="#C172FF"/>
</linearGradient>
<linearGradient id="paint2_linear_344_108" x1="713" y1="161" x2="1020" y2="161" gradientUnits="userSpaceOnUse">
<stop stop-color="#716EFF"/>
<stop offset="1" stop-color="#C172FF"/>
</linearGradient>
<linearGradient id="paint3_linear_344_108" x1="1205" y1="178.5" x2="1280" y2="178.5" gradientUnits="userSpaceOnUse">
<stop stop-color="#716EFF"/>
<stop offset="1" stop-color="#C172FF"/>
</linearGradient>
<linearGradient id="paint4_linear_344_108" x1="713" y1="210.5" x2="789" y2="210.5" gradientUnits="userSpaceOnUse">
<stop stop-color="#716EFF"/>
<stop offset="1" stop-color="#C172FF"/>
</linearGradient>
<linearGradient id="paint5_linear_344_108" x1="1038" y1="151" x2="1226" y2="151" gradientUnits="userSpaceOnUse">
<stop stop-color="#716EFF"/>
<stop offset="1" stop-color="#C172FF"/>
</linearGradient>
</defs>
</svg>
